<svg role="presentation" width="32" height="32" viewBox="0 0 32 32" fill="none" xmlns="http://www.w3.org/2000/svg">
<g clip-path="url(#clip0_434_1802)">
<path d="M16.0048 0C20.4212 0 24.4248 1.79538 27.3243 4.68527C30.2238 7.58476 32.0096 11.5788 32.0096 16.0048C32.0096 20.4212 30.2142 24.4248 27.3243 27.3243C24.4248 30.2238 20.4308 32.0096 16.0048 32.0096C11.5884 32.0096 7.58476 30.2142 4.68527 27.3243C1.78578 24.4248 0 20.4308 0 16.0048C0 11.5884 1.79538 7.58476 4.68527 4.68527C7.58476 1.78578 11.5788 0 16.0048 0ZM17.7426 10.9163H20.6325V7.45035H17.7426C15.5152 7.45035 13.7006 9.26493 13.7006 11.4923V13.2301H11.3867V16.6961H13.7006V25.9418H17.1665V16.6961H20.0564L20.6325 13.2301H17.1665V11.4923C17.1665 11.1755 17.4353 10.9163 17.7426 10.9163ZM26.5083 5.51095C23.82 2.82268 20.114 1.16172 16.0144 1.16172C11.9148 1.16172 8.19922 2.82268 5.52055 5.51095C2.83228 8.19922 1.17132 11.9052 1.17132 16.0048C1.17132 20.1044 2.83228 23.82 5.52055 26.4987C8.20882 29.1869 11.9148 30.8479 16.0144 30.8479C20.114 30.8479 23.8296 29.1869 26.5083 26.4987C29.1965 23.8104 30.8575 20.1044 30.8575 16.0048C30.8575 11.9052 29.1965 8.18962 26.5083 5.51095Z" fill="white"/>
</g>
<defs>
<clipPath id="clip0_434_1802">
<rect width="32" height="32" fill="white"/>
</clipPath>
</defs>
</svg>
