<svg role="presentation" width="32" height="32" viewBox="0 0 32 32" fill="none" xmlns="http://www.w3.org/2000/svg">
<g clip-path="url(#clip0_434_1798)">
<path fill-rule="evenodd" clip-rule="evenodd" d="M15.9568 11.2715C18.6931 11.2715 20.9109 13.4893 20.9109 16.2256C20.9109 18.9619 18.6931 21.1797 15.9568 21.1797C13.2205 21.1797 11.0027 18.9619 11.0027 16.2256C11.0027 13.4893 13.2205 11.2715 15.9568 11.2715ZM12.2604 7.22952H19.7492C22.5623 7.22952 24.8569 9.50495 24.8569 12.27V19.7396C24.8569 22.5143 22.5623 24.7801 19.7492 24.7801H12.2604C9.44735 24.7801 7.15272 22.5143 7.15272 19.7396V12.27C7.15272 9.49535 9.45695 7.22952 12.2604 7.22952ZM20.7477 10.5803C21.1893 10.5803 21.5542 10.9355 21.5542 11.3867C21.5542 11.8284 21.1989 12.1932 20.7477 12.1932C20.306 12.1932 19.9412 11.838 19.9412 11.3867C19.9412 10.9451 20.2964 10.5803 20.7477 10.5803ZM12.8749 8.66007H19.1347C21.4869 8.66007 23.4071 10.5707 23.4071 12.9133V19.2115C23.4071 21.5542 21.4869 23.4647 19.1347 23.4647H12.8749C10.5227 23.4647 8.60246 21.5542 8.60246 19.2115V12.9133C8.60246 10.5707 10.5227 8.66007 12.8749 8.66007ZM16.0048 0C20.4212 0 24.4248 1.79538 27.3243 4.68527C30.2238 7.58476 32.0096 11.5788 32.0096 16.0048C32.0096 20.4212 30.2142 24.4248 27.3243 27.3243C24.4248 30.2238 20.4308 32.0096 16.0048 32.0096C11.5884 32.0096 7.58476 30.2142 4.68527 27.3243C1.78578 24.4248 0 20.4308 0 16.0048C0 11.5884 1.79538 7.58476 4.68527 4.68527C7.58476 1.78578 11.5788 0 16.0048 0ZM26.4987 5.50135C23.8104 2.81308 20.1044 1.15212 16.0048 1.15212C11.9052 1.15212 8.18962 2.81308 5.51095 5.50135C2.82268 8.18962 1.16172 11.8956 1.16172 15.9952C1.16172 20.0948 2.82268 23.8104 5.51095 26.4891C8.19922 29.1773 11.9052 30.8383 16.0048 30.8383C20.1044 30.8383 23.82 29.1773 26.4987 26.4891C29.1869 23.8008 30.8479 20.0948 30.8479 15.9952C30.8479 11.8956 29.1869 8.18002 26.4987 5.50135ZM15.9568 12.9325C17.7618 12.9325 19.2307 14.4014 19.2307 16.2064C19.2307 18.0114 17.7618 19.4803 15.9568 19.4803C14.1422 19.4803 12.6829 18.0114 12.6829 16.2064C12.6829 14.4014 14.1518 12.9325 15.9568 12.9325Z" fill="white"/>
</g>
<defs>
<clipPath id="clip0_434_1798">
<rect width="32" height="32" fill="white"/>
</clipPath>
</defs>
</svg>
