<svg role="presentation" width="32" height="32" viewBox="0 0 32 32" fill="none" xmlns="http://www.w3.org/2000/svg">
<g clip-path="url(#clip0_434_1800)">
<path fill-rule="evenodd" clip-rule="evenodd" d="M14.0654 12.9997H17.1569V14.5839H17.2049C17.637 13.8062 18.6931 12.9997 20.258 12.9997C23.5224 12.9997 24.1272 15.0351 24.1272 17.685V23.0711H20.9013V18.2898C20.9013 17.1473 20.8821 15.688 19.2211 15.688C17.541 15.688 17.2817 16.9265 17.2817 18.213V23.0711H14.0558V12.9997H14.0654ZM16.0048 0C20.4212 0 24.4248 1.79538 27.3243 4.68527C30.2238 7.58476 32.0096 11.5788 32.0096 16.0048C32.0096 20.4212 30.2142 24.4248 27.3243 27.3243C24.4248 30.2238 20.4308 32.0096 16.0048 32.0096C11.5884 32.0096 7.58476 30.2142 4.68527 27.3243C1.78578 24.4248 0 20.4308 0 16.0048C0 11.5884 1.79538 7.58476 4.68527 4.68527C7.58476 1.78578 11.5788 0 16.0048 0ZM26.4987 5.50135C23.8104 2.81308 20.1044 1.15212 16.0048 1.15212C11.9052 1.15212 8.18962 2.81308 5.51095 5.50135C2.82268 8.18962 1.16172 11.8956 1.16172 15.9952C1.16172 20.0948 2.82268 23.8104 5.51095 26.4891C8.19922 29.1773 11.9052 30.8383 16.0048 30.8383C20.1044 30.8383 23.82 29.1773 26.4987 26.4891C29.1869 23.8008 30.8479 20.0948 30.8479 15.9952C30.8479 11.8956 29.1869 8.18002 26.4987 5.50135ZM11.8284 10.2058C11.8284 11.1371 11.0795 11.886 10.1482 11.886C9.21692 11.886 8.46805 11.1371 8.46805 10.2058C8.46805 9.27453 9.21692 8.52565 10.1482 8.52565C11.0795 8.52565 11.8284 9.27453 11.8284 10.2058ZM8.46805 12.9997H11.8284V23.0711H8.46805V12.9997Z" fill="white"/>
</g>
<defs>
<clipPath id="clip0_434_1800">
<rect width="32" height="32" fill="white"/>
</clipPath>
</defs>
</svg>
