<svg role="presentation" width="32" height="32" viewBox="0 0 32 32" fill="none" xmlns="http://www.w3.org/2000/svg">
<g clip-path="url(#clip0_434_1794)">
<path d="M16.0048 0C20.4212 0 24.4248 1.79538 27.3243 4.68527C30.2238 7.58476 32.0096 11.5788 32.0096 16.0048C32.0096 20.4212 30.2142 24.4248 27.3243 27.3243C24.4248 30.2238 20.4308 32.0096 16.0048 32.0096C11.5884 32.0096 7.58476 30.2142 4.68527 27.3243C1.78578 24.4248 0 20.4308 0 16.0048C0 11.5884 1.79538 7.58476 4.68527 4.68527C7.58476 1.78578 11.5788 0 16.0048 0ZM19.4227 7.25833C19.7108 9.74498 21.0933 11.2235 23.5032 11.3771V14.171C22.111 14.3054 20.8821 13.8446 19.4611 12.9901V18.2034C19.4611 24.8377 12.2316 26.9115 9.32253 22.159C7.45035 19.1059 8.59286 13.7294 14.5935 13.5182V16.4656C14.1326 16.5425 13.6526 16.6577 13.2013 16.8017C11.8668 17.2529 11.1179 18.0978 11.3291 19.586C11.7324 22.4374 16.9745 23.2823 16.5329 17.7042V7.25833H19.4227ZM26.4987 5.50135C23.8104 2.81308 20.1044 1.15212 16.0048 1.15212C11.9052 1.15212 8.18962 2.81308 5.51095 5.50135C2.82268 8.18962 1.16172 11.8956 1.16172 15.9952C1.16172 20.0948 2.82268 23.8104 5.51095 26.4891C8.19922 29.1773 11.9052 30.8383 16.0048 30.8383C20.1044 30.8383 23.82 29.1773 26.4987 26.4891C29.1869 23.8008 30.8479 20.0948 30.8479 15.9952C30.8479 11.8956 29.1869 8.18002 26.4987 5.50135Z" fill="white"/>
</g>
<defs>
<clipPath id="clip0_434_1794">
<rect width="32" height="32" fill="white"/>
</clipPath>
</defs>
</svg>
