<svg role="presentation" width="32" height="32" viewBox="0 0 32 32" fill="none" xmlns="http://www.w3.org/2000/svg">
<g clip-path="url(#clip0_434_1804)">
<path d="M16.0048 0C20.4212 0 24.4248 1.79538 27.3243 4.68527C30.2238 7.58476 32.0096 11.5788 32.0096 16.0048C32.0096 20.4212 30.2142 24.4248 27.3243 27.3243C24.4248 30.2238 20.4308 32.0096 16.0048 32.0096C11.5884 32.0096 7.58476 30.2142 4.68527 27.3243C1.78578 24.4248 0 20.4308 0 16.0048C0 11.5884 1.79538 7.58476 4.68527 4.68527C7.58476 1.78578 11.5788 0 16.0048 0ZM24.3288 10.8395C23.7144 11.1179 23.0615 11.2907 22.3702 11.3771C23.0807 10.9547 23.6184 10.2826 23.8776 9.48575C23.2151 9.87939 22.4854 10.1578 21.7078 10.3114C21.0837 9.64896 20.2004 9.23612 19.2115 9.23612C17.3201 9.23612 15.7936 10.7627 15.7936 12.6541C15.7936 12.9229 15.8224 13.1821 15.88 13.4317C13.0381 13.2877 10.5227 11.9244 8.84248 9.86018C8.54485 10.3786 8.38164 10.9739 8.38164 11.5788C8.38164 12.7597 8.9865 13.8062 9.89859 14.4206C9.34173 14.4014 8.81368 14.2478 8.35283 13.9982V14.0366C8.35283 15.688 9.53375 17.0705 11.0987 17.3873C10.8107 17.4641 10.513 17.5121 10.1962 17.5121C9.9754 17.5121 9.76418 17.4929 9.55295 17.4545C9.9946 18.8083 11.2523 19.7972 12.7405 19.826C11.5692 20.7477 10.1002 21.2853 8.49685 21.2853C8.21842 21.2853 7.94959 21.2661 7.68077 21.2373C9.19772 22.207 10.9931 22.7735 12.9229 22.7735C19.2019 22.7735 22.6487 17.5698 22.6487 13.0477C22.6487 12.8941 22.6487 12.7501 22.6391 12.6061C23.3111 12.126 23.8872 11.5308 24.3384 10.8395H24.3288ZM26.4986 5.51095C23.8104 2.82268 20.1044 1.16172 16.0048 1.16172C11.9052 1.16172 8.18962 2.82268 5.51095 5.51095C2.82268 8.19922 1.16172 11.9052 1.16172 16.0048C1.16172 20.1044 2.82268 23.82 5.51095 26.4986C8.19922 29.1869 11.9052 30.8479 16.0048 30.8479C20.1044 30.8479 23.82 29.1869 26.4986 26.4986C29.1869 23.8104 30.8479 20.1044 30.8479 16.0048C30.8479 11.9052 29.1869 8.18962 26.4986 5.51095Z" fill="white"/>
</g>
<defs>
<clipPath id="clip0_434_1804">
<rect width="32" height="32" fill="white"/>
</clipPath>
</defs>
</svg>
