<svg role="presentation" width="32" height="32" viewBox="0 0 32 32" fill="none" xmlns="http://www.w3.org/2000/svg">
<g clip-path="url(#clip0_434_1796)">
<path fill-rule="evenodd" clip-rule="evenodd" d="M24.4536 12.5485C24.4536 12.5485 24.2808 11.3579 23.7624 10.8395C23.1095 10.1482 22.3702 10.1482 22.0342 10.1098C19.6244 9.93699 15.9952 9.93699 15.9952 9.93699H15.9856C15.9856 9.93699 12.366 9.93699 9.9466 10.1098C9.61056 10.1482 8.87129 10.1578 8.21842 10.8395C7.69997 11.3579 7.53675 12.5485 7.53675 12.5485C7.53675 12.5485 7.36394 13.9406 7.36394 15.3423V16.6481C7.36394 18.0402 7.53675 19.4419 7.53675 19.4419C7.53675 19.4419 7.70957 20.6325 8.21842 21.1509C8.87129 21.8422 9.73537 21.8134 10.1194 21.8902C11.502 22.0246 15.9856 22.063 15.9856 22.063C15.9856 22.063 19.6148 22.0534 22.0246 21.8806C22.3606 21.8422 23.0999 21.8326 23.7528 21.1509C24.2712 20.6325 24.444 19.4419 24.444 19.4419C24.444 19.4419 24.6169 18.0498 24.6169 16.6481V15.3423C24.6169 13.9502 24.444 12.5485 24.444 12.5485H24.4536ZM16.0048 0C20.4212 0 24.4248 1.79538 27.3243 4.68527C30.2238 7.58476 32.0096 11.5788 32.0096 16.0048C32.0096 20.4212 30.2142 24.4248 27.3243 27.3243C24.4248 30.2238 20.4308 32.0096 16.0048 32.0096C11.5884 32.0096 7.58476 30.2142 4.68527 27.3243C1.78578 24.4248 0 20.4308 0 16.0048C0 11.5884 1.79538 7.58476 4.68527 4.68527C7.58476 1.78578 11.5788 0 16.0048 0ZM26.4987 5.50135C23.8104 2.81308 20.1044 1.15212 16.0048 1.15212C11.9052 1.15212 8.18962 2.81308 5.51095 5.50135C2.82268 8.18962 1.16172 11.8956 1.16172 15.9952C1.16172 20.0948 2.82268 23.8104 5.51095 26.4891C8.19922 29.1773 11.9052 30.8383 16.0048 30.8383C20.1044 30.8383 23.82 29.1773 26.4987 26.4891C29.1869 23.8008 30.8479 20.0948 30.8479 15.9952C30.8479 11.8956 29.1869 8.18002 26.4987 5.50135ZM14.2094 18.2418V13.3933L18.8755 15.8224L14.2094 18.2418Z" fill="white"/>
</g>
<defs>
<clipPath id="clip0_434_1796">
<rect width="32" height="32" fill="white"/>
</clipPath>
</defs>
</svg>
