<svg role="presentation" width="124" height="40" viewBox="0 0 124 40" fill="none" xmlns="http://www.w3.org/2000/svg">
<g clip-path="url(#clip0_456_658)">
<path d="M8.40794 31.0247H23.0173V39.2421H0.0221558V6.26465H8.40063V31.0247H8.40794Z" fill="#00E35D"/>
<path d="M52.7036 26.488C52.7036 33.8499 46.5895 39.8386 39.0803 39.8386C31.5711 39.8386 25.457 33.8499 25.457 26.488C25.457 19.1262 31.5711 13.1375 39.0803 13.1375C46.5895 13.1375 52.7036 19.1262 52.7036 26.488ZM44.1936 26.488C44.1936 23.6914 41.8853 21.4555 39.0803 21.4555C36.2753 21.4555 33.967 23.6914 33.967 26.488C33.967 29.2847 36.2753 31.5205 39.0803 31.5205C41.8853 31.5205 44.1936 29.2847 44.1936 26.488Z" fill="#00E35D"/>
<path d="M83.0329 13.8206L72.0905 26.1431L82.916 39.2636H71.9152L64.6397 30.0757V39.2636H56.2539V6.28617L64.6397 0.35498V22.268L71.9736 13.8206H83.0329Z" fill="#00E35D"/>
<path d="M101.711 13.8199V15.1931C99.7896 13.9349 97.4594 13.252 95.078 13.252C87.9779 13.252 82.2145 19.1831 82.2145 26.545C82.2145 33.9069 87.9779 39.8956 95.078 39.8956C97.4667 39.8956 99.7896 39.2126 101.711 37.9545V39.2701H110.089V13.8199H101.711ZM96.371 31.52C93.5441 31.52 91.2577 29.2698 91.2577 26.4875C91.2577 23.7052 93.5441 21.455 96.371 21.455C99.1979 21.455 101.484 23.7052 101.484 26.4875C101.484 29.2698 99.1979 31.52 96.371 31.52Z" fill="#00E35D"/>
<path d="M114.808 6.28617L123.135 0.35498V39.2708H114.808V6.28617Z" fill="#00E35D"/>
</g>
<defs>
<clipPath id="clip0_456_658">
<rect width="124" height="40" fill="white"/>
</clipPath>
</defs>
</svg>
